# xmcd
#
# Track frame offsets: 
#        150
#        18582
#        40327
#        57987
#        71928
#        84787
#        101085
#        116094
#        132380
#        150164
#        172354
#        184928
#
# Disc length: 2678 seconds
#
# Revision: 0
# Processed by: cddbd v1.5.2PL0 Copyright (c) Steve Scherf et al.
# Submitted via: ExactAudioCopy v0.99pb4
#
DISCID=a80a740c
DTITLE=Popiól - Okno na Swiat
DYEAR=2008
DGENRE=Rock
TTITLE0=Nie szukaj mnie
TTITLE1=Okno na swiat
TTITLE2=Czerwien i biel
TTITLE3=3:05
TTITLE4=Za malo
TTITLE5=Wyszlas
TTITLE6=Niewypowiedziane slowa
TTITLE7=Zle mysli
TTITLE8=Zycie
TTITLE9=Popiol na dloni
TTITLE10=Nie czekaj na wiatr
TTITLE11=Bartek
EXTD=
EXTT0=
EXTT1=
EXTT2=
EXTT3=
EXTT4=
EXTT5=
EXTT6=
EXTT7=
EXTT8=
EXTT9=
EXTT10=
EXTT11=
PLAYORDER=
